# xmcd CD database file
#
# Track frame offsets:
#	150
#	13183
#	30365
#	54986
#	63564
#	94259
#	118668
#	140026
#	170968
#	190233
#	211667
#	214763
#	240383
#	257206
#	284620
#	302773
#	350742
#
# Disc length: 4762 seconds
#
# Revision: 0
# Processed by: cddbd v1.5.1PL0 Copyright (c) Steve Scherf et al.
# Submitted via: CDex 1.51
#
DISCID=08129811
DTITLE=SEX MACHINEGUNS - Burning Hammer(LIVE盤)
DYEAR=2001
DGENRE=Heavy Metal
TTITLE0=Introduction
TTITLE1=みかんのうた
TTITLE2=TEKKEN ?
TTITLE3=MC ?
TTITLE4=JAPAN
TTITLE5=High Speed SAMURAI
TTITLE6=エステティシャン
TTITLE7=Iron Cross
TTITLE8=KISS
TTITLE9=SCORPION DEATH ROCK
TTITLE10=MC ?
TTITLE11=ファミレスボンバー
TTITLE12=桜島
TTITLE13=BURN〜愛の炎を燃やせ〜
TTITLE14=食べたいななめたい危険地帯
TTITLE15=ONIGUNSOW
TTITLE16=German Power
EXTD=YEAR: 2001.10.31
EXTT0=
EXTT1=
EXTT2=
EXTT3=
EXTT4=
EXTT5=
EXTT6=
EXTT7=
EXTT8=
EXTT9=
EXTT10=
EXTT11=
EXTT12=
EXTT13=
EXTT14=
EXTT15=
EXTT16=
PLAYORDER=
